<?xml version="1.0" encoding="UTF-8" standalone="no"?>
<!DOCTYPE svg PUBLIC "-//W3C//DTD SVG 1.1//EN" "http://www.w3.org/Graphics/SVG/1.1/DTD/svg11.dtd">
<svg width="100%" height="100%" viewBox="0 0 3508 2481" version="1.1" xmlns="http://www.w3.org/2000/svg" xmlns:xlink="http://www.w3.org/1999/xlink" xml:space="preserve" xmlns:serif="http://www.serif.com/" style="fill-rule:evenodd;clip-rule:evenodd;stroke-linejoin:round;stroke-miterlimit:2;">
    <g transform="matrix(-0.497653,-0.214134,0.237239,-0.498993,3187.10423,2294.454635)">
        <path d="M1240.157,1296.85C1267.674,1267.205 1712.57,670.754 1712.57,670.754C1712.57,670.754 1139.919,1225.245 1107.283,1227.756C1038.189,1233.071 418.124,841.875 418.124,841.875C418.124,841.875 1045.957,1287.367 960.918,1356.461C875.879,1425.556 442.873,1668.631 442.873,1668.631C442.873,1668.631 963.779,1456.299 1032.874,1504.134C1101.969,1551.969 1406.381,2231.935 1406.381,2231.935C1406.381,2231.935 1160.433,1498.819 1240.157,1461.614C1271.208,1447.124 1652.024,1443.558 1837.656,1521.983C1941.764,1565.967 2068.185,1865.73 2222.196,1961.94C2379.48,2060.194 3317.95,1902.657 3317.95,1902.657C3297.045,1878.688 2399.929,2042.127 2242.232,1939.18C2107.844,1851.449 1938.975,1523.978 1841.105,1488.206C1631.86,1411.726 1225.208,1312.957 1240.157,1296.85Z" style="fill:rgb(249,249,249);"/>
    </g>
    <g transform="matrix(0.886399,0,0,0.695623,632.548909,-366.193926)">
        <path d="M1240.157,1296.85C1217.721,1263.196 1393.054,724.581 1393.054,724.581C1393.054,724.581 1139.919,1225.245 1107.283,1227.756C1038.189,1233.071 703.346,935.433 703.346,935.433C703.346,935.433 1075.393,1280.905 990.354,1350C905.315,1419.094 591.732,1530.709 591.732,1530.709C591.732,1530.709 963.779,1456.299 1032.874,1504.134C1101.969,1551.969 1265.105,2367.972 1265.105,2367.972C1265.105,2367.972 1160.433,1498.819 1240.157,1461.614C1319.882,1424.409 1878.345,1564.268 1878.345,1564.268C1878.345,1564.268 1282.677,1360.63 1240.157,1296.85Z" style="fill:rgb(249,249,249);"/>
    </g>
    <g transform="matrix(0.861184,0,0,0.819274,943.566654,721.667739)">
        <path d="M1279.473,1364.007C1257.037,1330.353 2048.111,956.892 2048.111,956.892C2048.111,956.892 1208.722,1240.937 1176.086,1243.447C1106.992,1248.762 908.449,494.921 908.449,494.921C908.449,494.921 1026.035,1281.395 940.996,1350.49C855.957,1419.584 669.793,1582.368 669.793,1582.368C669.793,1582.368 963.779,1456.299 1032.874,1504.134C1101.969,1551.969 1083.644,1979.797 1083.644,1979.797C1083.644,1979.797 1132.252,1550.478 1211.976,1513.273C1291.701,1476.068 1666.665,1630.151 1666.665,1630.151C1666.665,1630.151 1321.993,1427.786 1279.473,1364.007Z" style="fill:rgb(249,249,249);"/>
    </g>
    <g transform="matrix(0.499533,-0.414479,0.40681,0.49029,-1348.487458,2516.601461)">
        <path d="M3043.459,546.057C2730.234,560.185 2569.302,805.19 2569.302,1091.537C2569.302,1366.743 2802.23,1569.899 3098.232,1599.687C2768.684,1631.682 2391.422,1458.499 2390.475,1067.489C2389.468,651.605 2704.975,469.697 3043.459,546.057Z" style="fill:rgb(249,249,249);"/>
    </g>
    <path d="M706.123,2110.725C705.703,2111.154 702.69,2114.236 702.54,2114.311C702.191,2114.487 701.782,2114.522 701.433,2114.697C701.606,2114.347 701.641,2113.94 701.814,2113.59C701.841,2113.535 702.905,2112.501 704.87,2110.256C705.615,2109.404 705.718,2109.523 706.821,2109.282C740.166,2101.985 753.734,2105.853 829.18,2031.299C865.83,1995.082 870.193,1988.414 881.048,1979.875C896.785,1967.495 908.734,1967.319 919.62,1978.588C931.567,1990.954 938.828,2011.802 964.352,2011.384C989.985,2010.965 1023.619,1989.518 1043.774,1975.543C1055.482,1967.426 1093.487,1939.573 1150.006,1852.263C1153.332,1847.125 1187.878,1795.288 1229.016,1711.84C1229.301,1711.262 1243.091,1683.394 1255.729,1654.794C1282.238,1594.807 1293.259,1556.921 1293.745,1543.738C1294.823,1514.494 1295.425,1493.559 1296.126,1489.401C1296.2,1488.963 1296.644,1486.327 1298.013,1484.185C1298.424,1483.541 1298.854,1482.905 1299.346,1482.322C1299.648,1481.963 1300.023,1481.671 1300.384,1481.373C1300.95,1480.906 1301.51,1480.427 1302.126,1480.029C1307.597,1476.493 1312.854,1478.348 1313.736,1478.659C1315.601,1479.317 1316.945,1480.308 1317.198,1480.494C1317.653,1480.829 1319.435,1482.478 1319.604,1482.692C1322.356,1486.182 1322.67,1489.983 1322.851,1492.139C1324.132,1507.339 1326.07,1585.638 1337.101,1678.745C1358.894,1862.676 1405.153,2005.488 1485.831,2015.91C1534.741,2022.228 1586.027,1978.936 1616.8,1948.705C1619.463,1946.089 1622.594,1946.089 1623.143,1946.089C1624.292,1946.089 1625.464,1946.307 1626.526,1946.744C1630.019,1948.183 1631.243,1951.158 1631.455,1951.673C1632.847,1955.054 1631.661,1957.938 1631.455,1958.438C1631.005,1959.532 1630.207,1960.451 1629.5,1961.399C1629.49,1961.413 1626.755,1964.182 1624.357,1966.543C1585.149,2005.145 1518.184,2058.712 1452.699,2027.064C1413.214,2007.982 1361.468,1951.781 1326.901,1774.508C1314.515,1710.99 1307.527,1645.522 1304.042,1606.484C1292.058,1639.461 1275.096,1677.987 1258.957,1710.789C1247.148,1734.789 1220.433,1787.733 1181.938,1846.771C1136.897,1915.849 1103.071,1949.183 1093.269,1958.692C1070.604,1980.682 1055.024,1990.375 1041.139,1998.597C975.715,2037.337 945.382,2029.902 926.143,2007.31C916.174,1995.605 910.772,1982.134 902.587,1981.79C892.245,1981.355 876.081,1997.934 869.218,2004.498C829.903,2042.105 793.513,2074.638 766.539,2091.389C741.255,2107.092 728.224,2106.895 706.123,2110.725Z" style="fill:rgb(249,249,249);"/>
    <g transform="matrix(1,0,0,1,-20.830343,-14.107611)">
        <path d="M1669.993,638.869C1675.178,635.843 1693.752,621.494 1690.53,607.81C1690.102,605.989 1689.344,603.304 1684.039,596.86C1672.969,583.414 1665.046,585.824 1662.712,586.535C1656.557,588.412 1649.761,595.04 1648.723,598.55C1648.484,599.36 1648.485,599.753 1648.941,600.951C1649.523,602.478 1651.43,604.493 1654.63,606.45C1656.329,607.488 1656.217,607.678 1660.488,609.866C1663.219,611.266 1665.526,611.137 1666.469,611.197C1670.62,611.462 1674.614,609.264 1673.999,606.542C1673.999,606.541 1673.637,605.721 1672.266,605.037C1671.417,604.614 1670.515,604.415 1670.511,604.41C1670.355,604.234 1670.305,603.981 1670.149,603.804C1670.372,603.726 1670.536,603.52 1670.759,603.442C1670.759,603.441 1671.339,603.583 1671.91,603.796C1674.023,604.584 1674.561,605.62 1675.04,606.219C1677.395,609.16 1674.801,615.285 1667.78,618.506C1667.754,618.518 1666.075,619.189 1663.719,619.504C1663.05,619.594 1659.922,620.219 1652.675,618.469C1651.539,618.194 1649.194,617.693 1645.556,615.812C1636.746,611.258 1635.084,605.472 1634.805,604.653C1630.062,590.738 1645.02,578.404 1651.981,574.411C1660.327,569.623 1678.303,563.805 1698.282,587.871C1702.038,592.395 1710.066,601.966 1707.931,616.615C1704.828,637.905 1681.945,654.217 1677.378,656.224C1676.492,656.614 1655.346,664.449 1635.841,660.159C1621.983,657.112 1615.766,649.643 1612.067,645.476C1576.524,605.438 1590.761,572.002 1597.178,563.589C1608.969,548.129 1640.462,526.164 1657.519,523.765C1657.765,523.73 1667.186,522.541 1678.957,523.588C1707.95,526.164 1726.985,539.915 1733.097,550.308C1774.023,619.894 1730.418,667.476 1715.479,682.921C1710.88,687.675 1709.343,688.961 1707.033,691.623C1686.045,715.814 1634.629,709.895 1617.787,704.744C1600.615,699.492 1572.785,678.449 1555.267,652.947C1553.802,650.813 1549.251,644.193 1544.909,634.145C1542.593,628.785 1541.069,623.081 1540.806,622.098C1534.647,599.04 1541.425,580.953 1541.516,580.682C1543.143,575.848 1544.49,573.294 1544.813,572.682C1547.687,567.233 1556.07,553.158 1569.558,537.824C1569.711,537.65 1579.926,526.136 1594.87,515.065C1596.196,514.082 1602.246,509.424 1612.524,504.049C1614.88,502.817 1616.741,501.934 1616.748,501.935L1617.441,502.074L1617.303,502.767C1615.792,504.149 1610.87,508.345 1601.937,518.659C1590.65,531.692 1584.163,543.48 1581.975,547.049C1570.737,565.381 1565.309,581.174 1564.991,583.055L1565.059,582.859C1564.922,583.476 1564.302,586.286 1563.849,590.672C1563.085,598.073 1563.969,605.401 1567.004,614.322C1572.378,630.12 1584.175,644.033 1584.617,644.571C1599.349,662.519 1618.482,675.348 1626.717,677.738C1640.609,681.77 1670.931,683.519 1683.612,675.287C1685.951,673.769 1685.632,673.399 1690.76,668.41C1703.993,655.539 1729.207,631.584 1722.668,593.906C1720.157,579.437 1713.727,567.692 1711.149,563.002C1708.851,559.457 1693.258,545.661 1661.307,547.406C1660.332,547.459 1657.647,547.605 1649.81,551.478C1638.802,556.919 1622.531,567.86 1614.687,577.448C1613.151,579.882 1603.157,597.705 1621.841,624.734C1624.791,629.001 1629.754,635.147 1632.093,637.004C1640.819,643.927 1657.091,642.618 1669.993,638.869Z" style="fill:rgb(255,0,0);"/>
    </g>
    <g transform="matrix(-0.580906,1.370646,1.412525,0.598655,610.775792,-985.863865)">
        <path d="M1611.785,575.075C1622.369,561.751 1649.817,544.799 1660.055,543.331C1660.07,543.329 1667.756,542.586 1676.948,543.557C1700.767,546.074 1712.799,557.357 1714.669,560.639C1727.183,582.617 1727.87,599.13 1728.034,603.752C1729.434,643.207 1697.762,667.086 1689.688,676.237C1688.935,677.091 1683.57,684.311 1662.12,685.789C1646.693,686.852 1629.333,684.342 1622.461,681.446C1611.146,676.678 1587.247,659.462 1572.516,635.964C1571.358,634.116 1564.837,624.143 1561.69,612.153C1560.804,608.778 1558.242,599.551 1560.265,587.728C1560.612,585.7 1560.68,584.879 1561.546,581.539L1561.52,581.615C1561.779,580.347 1567.701,563.928 1580.485,544.617C1582.295,541.882 1590.216,528.835 1603.458,515.339C1605.824,512.928 1609.752,508.747 1616.765,502.99C1617.183,502.647 1617.19,502.658 1617.216,502.62C1617.347,502.419 1617.171,502.368 1617.302,502.166C1617.146,502.191 1616.991,502.058 1616.834,502.083C1616.833,502.083 1614.174,503.494 1610.73,505.583C1602.643,510.491 1597.559,514.562 1594.413,517.138C1584.107,525.577 1576.532,533.803 1572.491,538.377C1572.479,538.389 1570.222,541.027 1567.419,544.614C1555.357,560.05 1548.215,573.661 1546.96,576.898C1545.806,579.873 1543.858,584.878 1542.9,592.905C1541.094,608.035 1544.787,619.955 1545.923,623.583C1549.892,636.252 1556.559,647.371 1564.485,657.389C1581.164,678.469 1604.423,695.343 1618.624,699.844C1634.848,704.987 1683.217,710.218 1702.892,689.199C1704.164,687.84 1704.076,687.765 1706.443,685.381C1719.007,672.725 1761.868,633.783 1739.445,573.331C1738.479,570.726 1735.448,562.708 1729.544,552.618C1723.458,542.217 1699.327,524.575 1659.442,527.737C1645.681,528.828 1621.605,544.768 1608.428,557.014C1608.078,557.339 1601.31,563.557 1598.584,568.159C1593.665,576.465 1581.1,607.705 1617.614,646.442C1635.153,665.05 1666.945,656.348 1675.278,653.541C1676.046,653.282 1678.179,652.563 1683.745,648.079C1697.04,637.368 1711.924,618.513 1702.431,598.943C1702.137,598.337 1700.748,595.187 1695.681,589.151C1675.567,565.194 1656.15,571.283 1643.547,584.407C1641.609,586.424 1633.011,595.355 1637.675,605.333C1639.723,609.716 1644.63,612.691 1645.387,613.15C1647.477,614.417 1649.444,615.244 1650.193,615.556C1650.258,615.583 1652.473,616.454 1655.831,617.246C1658.382,617.848 1662.365,618.774 1667.245,617.311C1669.508,616.632 1674.783,613.61 1675.483,609.247C1675.795,607.301 1674.778,606.192 1674.649,605.992C1674.054,605.068 1672.931,604.232 1671.078,603.706C1670.999,603.684 1670.921,603.627 1670.84,603.641C1670.556,603.692 1670.593,603.792 1670.309,603.843C1670.443,603.973 1670.532,604.141 1670.665,604.271C1670.675,604.28 1673.114,604.801 1674.079,606.337C1674.608,607.179 1674.451,609.566 1671.124,611.266C1669.103,612.299 1667.209,612.424 1665.636,612.503C1662.735,612.65 1660.483,611.887 1657.007,610.171C1656.682,610.011 1655.471,609.413 1653.056,607.978C1647.774,604.84 1646.848,602.162 1646.512,601.293C1645.913,599.74 1645.555,596.92 1650.09,592.008C1653.194,588.647 1656.331,586.688 1656.938,586.309C1663.308,582.332 1673.076,579.579 1685.853,594.655C1687.05,596.067 1689.811,599.518 1691.199,601.955C1693.27,605.592 1697.802,615.165 1685.531,629.553C1679.971,636.071 1673.287,640.745 1671.119,641.944C1658.929,645.687 1637.77,648.591 1627.864,637.744C1603.225,610.762 1605.822,589.946 1609.252,580.362C1610.408,577.134 1611.487,575.513 1611.785,575.075Z" style="fill:rgb(255,0,0);"/>
    </g>
</svg>
