<?xml version="1.0" encoding="UTF-8" standalone="no"?>
<!DOCTYPE svg PUBLIC "-//W3C//DTD SVG 1.1//EN" "http://www.w3.org/Graphics/SVG/1.1/DTD/svg11.dtd">
<svg width="100%" height="100%" viewBox="0 0 2481 3508" version="1.1" xmlns="http://www.w3.org/2000/svg" xmlns:xlink="http://www.w3.org/1999/xlink" xml:space="preserve" xmlns:serif="http://www.serif.com/" style="fill-rule:evenodd;clip-rule:evenodd;stroke-linejoin:round;stroke-miterlimit:2;">
    <g transform="matrix(1,0,0,1,-271.062911,-481.915211)">
        <path d="M1240.157,1296.85C1217.721,1263.196 1393.054,724.581 1393.054,724.581C1393.054,724.581 1139.919,1225.245 1107.283,1227.756C1038.189,1233.071 703.346,935.433 703.346,935.433C703.346,935.433 1075.393,1280.905 990.354,1350C905.315,1419.094 591.732,1530.709 591.732,1530.709C591.732,1530.709 963.779,1456.299 1032.874,1504.134C1101.969,1551.969 1244.931,2288.878 1244.931,2288.878C1244.931,2288.878 1160.433,1498.819 1240.157,1461.614C1319.882,1424.409 1691.092,1639.272 1691.092,1639.272C1691.092,1639.272 1282.677,1360.63 1240.157,1296.85Z" style="fill:rgb(249,249,249);"/>
    </g>
</svg>
